<?xml version="1.0" encoding="UTF-8"?>
<svg id="Ebene_1" data-name="Ebene 1" xmlns="http://www.w3.org/2000/svg" viewBox="0 0 163.28 244.34">
  <defs>
    <style>
      .cls-1 {
        stroke-width: 0px;
      }
    </style>
  </defs>
  <polygon class="cls-1" points="49.88 110.61 81.42 0 91.95 0 145.6 175.02 142.18 175.39 96.9 145.58 70.9 59.29 54.62 115.9 49.88 110.61"/>
  <path class="cls-1" d="M51.38,50.95s-70.88,25.28-26.43,74.84c0,0,14.08,15.81,39.02,31.86,24.95,16.05,38.78,25.44,38.78,25.44,0,0,55.32,30.38,30.63,61.25,0,0,44.46-26.43,24.95-49.64-19.51-23.22-81.42-49.43-98.3-66.19,0,0-41.99-31.86-8.64-77.55Z"/>
  <path class="cls-1" d="M39.95,146.38l4.88,3.72-11.95,43.14c-.31,1.12-.68,2.22-1.09,3.3-1.52,4.04-5.18,15.82,2.69,18.53,9.54,3.29,20.32,2.32,20.32,2.32v5.6H0v-5.6s10.11.14,14.6-2.1c0,0,6.85-.38,11.87-20.97l13.48-47.93Z"/>
</svg>